<svg width="152" height="132" viewBox="0 0 152 132" fill="none" xmlns="http://www.w3.org/2000/svg">
<path d="M118.164 131.553L118.733 114.762L106.145 112.856L105.377 131.741" fill="white"/>
<path d="M105.378 132C105.311 131.997 105.248 131.969 105.203 131.92C105.157 131.872 105.132 131.807 105.134 131.741L105.901 112.851C105.902 112.815 105.91 112.779 105.926 112.747C105.942 112.714 105.964 112.686 105.992 112.663C106.019 112.64 106.051 112.624 106.086 112.615C106.12 112.606 106.156 112.605 106.191 112.612L118.784 114.518C118.845 114.528 118.9 114.56 118.94 114.607C118.979 114.655 118.999 114.715 118.997 114.777L118.428 131.548C118.427 131.581 118.419 131.614 118.405 131.644C118.391 131.675 118.371 131.702 118.347 131.725C118.322 131.747 118.293 131.765 118.262 131.776C118.231 131.788 118.197 131.793 118.164 131.792C118.131 131.79 118.098 131.783 118.067 131.769C118.037 131.755 118.01 131.735 117.987 131.71C117.964 131.686 117.947 131.657 117.935 131.626C117.924 131.594 117.919 131.561 117.92 131.527L118.474 114.991L106.384 113.161L105.632 131.761C105.628 131.826 105.599 131.887 105.552 131.931C105.505 131.976 105.442 132 105.378 132Z" fill="#1E293B"/>
<path d="M56.7322 124.301L71.1346 107.225L84.0125 110.376L67.6026 127.162" fill="white"/>
<path d="M67.6029 127.421C67.5359 127.42 67.4719 127.393 67.425 127.345C67.4014 127.322 67.3826 127.294 67.3697 127.264C67.3569 127.233 67.3503 127.2 67.3503 127.167C67.3503 127.134 67.3569 127.101 67.3697 127.071C67.3826 127.04 67.4014 127.012 67.425 126.989L83.5198 110.518L71.2264 107.51L56.9256 124.468C56.8806 124.519 56.8182 124.55 56.7512 124.555C56.6841 124.561 56.6175 124.541 56.5647 124.499C56.5136 124.455 56.4817 124.392 56.476 124.325C56.4703 124.257 56.4912 124.19 56.5342 124.138L70.9672 107.063C70.9975 107.026 71.0374 106.999 71.0824 106.985C71.1274 106.971 71.1756 106.969 71.2213 106.981L84.0991 110.127C84.142 110.139 84.1811 110.162 84.213 110.193C84.2449 110.224 84.2687 110.262 84.2821 110.305C84.2939 110.348 84.2945 110.394 84.2838 110.437C84.2732 110.481 84.2516 110.521 84.2211 110.554L67.8112 127.325C67.786 127.355 67.7542 127.38 67.7181 127.397C67.682 127.413 67.6426 127.422 67.6029 127.421Z" fill="#1E293B"/>
<path d="M112.548 38.3384C112.548 38.3384 92.9722 43.705 93.1603 44.4673C93.3483 45.2296 97.17 59.3475 97.17 59.3475L109.367 56.2983L112.548 38.3384Z" fill="#3B82F6"/>
<path d="M112.945 38.2213C112.945 38.2213 106.729 39.8882 102.918 42.0837C99.1062 44.2791 100.153 67.6768 100.153 67.6768L128.394 73.3686C128.394 73.3686 133.771 58.1734 133.405 51.2364C133.039 44.2994 128.75 34.4606 112.945 38.2213Z" fill="#3B82F6"/>
<path d="M98.8827 56.273C98.8509 56.2802 98.8179 56.2802 98.7861 56.273C98.7227 56.246 98.6723 56.1953 98.6457 56.1317C98.6191 56.0681 98.6184 55.9966 98.6438 55.9325C100.489 51.3942 103.268 44.4725 103.345 43.9897C103.345 43.9559 103.353 43.9225 103.366 43.8916C103.38 43.8607 103.4 43.8328 103.424 43.8096C103.449 43.7865 103.478 43.7684 103.51 43.7566C103.541 43.7447 103.575 43.7393 103.609 43.7407C103.679 43.7433 103.745 43.7728 103.793 43.8231C103.841 43.8733 103.868 43.9403 103.868 44.01C103.868 44.4471 100.555 52.6495 99.1266 56.1307C99.1041 56.1754 99.069 56.2127 99.0257 56.2379C98.9824 56.2632 98.9327 56.2754 98.8827 56.273Z" fill="#1E293B"/>
<path d="M114.673 35.3702L112.68 41.3568C112.68 41.3568 112.63 44.9142 116.578 44.6042C117.745 44.4999 118.873 44.1376 119.882 43.5434C120.891 42.9492 121.756 42.1381 122.412 41.1687L124.079 30.4355C123.475 29.9085 123.091 29.1741 123.002 28.3773C122.915 27.7809 122.932 27.1738 123.053 26.5833C123.238 25.7904 123.534 25.0275 123.932 24.3168C122.054 24.0237 120.332 23.1008 119.048 21.6995C118.743 21.3271 118.458 20.9386 118.194 20.5357C118.072 20.3477 115.567 21.5216 115.303 21.6538C114.012 22.2228 112.911 23.1506 112.132 24.3269C111.615 25.3434 111.287 26.4456 111.166 27.5794C110.87 29.1375 110.72 30.7198 110.719 32.3057C110.749 35.3295 114.673 35.3702 114.673 35.3702Z" fill="white"/>
<path d="M116.085 44.8583C115.155 44.9029 114.244 44.584 113.544 43.969C112.859 43.2709 112.469 42.3351 112.457 41.3568C112.454 41.3332 112.454 41.3093 112.457 41.2857L114.352 35.5887C113.387 35.4972 110.515 35.0043 110.49 32.321C110.492 30.7231 110.644 29.1289 110.942 27.5591C111.074 26.3917 111.418 25.2582 111.959 24.2151C112.744 23.0011 113.863 22.0393 115.181 21.4454C118.103 20.0021 118.296 20.2969 118.367 20.429C118.367 20.429 118.875 21.2218 119.201 21.5674C120.448 22.9348 122.127 23.8319 123.957 24.1084C123.993 24.1151 124.026 24.1302 124.055 24.1524C124.083 24.1745 124.106 24.2032 124.122 24.2359C124.137 24.2686 124.145 24.3045 124.143 24.3407C124.142 24.3768 124.132 24.4122 124.115 24.4438C123.727 25.1354 123.438 25.8778 123.256 26.6494C123.144 27.2154 123.129 27.7961 123.21 28.3672C123.287 29.1039 123.639 29.7844 124.196 30.2729C124.231 30.2967 124.258 30.33 124.274 30.3687C124.29 30.4075 124.295 30.4501 124.288 30.4914L122.621 41.2247C122.616 41.2551 122.606 41.2844 122.59 41.3111C121.92 42.3185 121.03 43.1615 119.988 43.7775C118.946 44.3934 117.779 44.7663 116.573 44.8685C116.416 44.8583 116.248 44.8583 116.085 44.8583ZM112.904 41.3975C112.928 42.2339 113.263 43.0313 113.844 43.6336C114.216 43.9424 114.65 44.1683 115.116 44.2962C115.582 44.4242 116.07 44.4512 116.548 44.3755C117.669 44.2718 118.754 43.9241 119.726 43.357C120.699 42.7899 121.536 42.0171 122.179 41.0925L123.82 30.5321C123.232 29.9704 122.858 29.2209 122.763 28.4129C122.67 27.7985 122.684 27.1728 122.804 26.563C122.967 25.8548 123.224 25.1713 123.566 24.5302C121.751 24.1914 120.096 23.2709 118.85 21.9079C118.586 21.6081 118.194 21.0287 118.042 20.8051C117.133 21.116 116.245 21.4861 115.384 21.913C114.145 22.4699 113.088 23.3646 112.335 24.4947C111.828 25.4912 111.505 26.5704 111.379 27.6811C111.088 29.2243 110.938 30.7911 110.932 32.3616C110.963 35.1161 114.49 35.1872 114.652 35.1923C114.688 35.1925 114.724 35.2014 114.755 35.2182C114.787 35.235 114.815 35.2592 114.835 35.2889C114.857 35.3184 114.872 35.3526 114.878 35.3888C114.884 35.425 114.882 35.4622 114.871 35.4972L112.904 41.3975Z" fill="#1E293B"/>
<path d="M121.975 29.4751C122.168 29.0484 122.49 28.6929 122.895 28.4587C123.287 28.2549 123.712 28.1208 124.15 28.0623C124.386 28.0066 124.631 28.0066 124.867 28.0623C125.029 28.1149 125.18 28.1996 125.309 28.3114C125.639 28.5414 125.875 28.8822 125.975 29.2719C126.016 29.5943 125.979 29.9219 125.868 30.2273C125.773 30.5662 125.632 30.8909 125.451 31.1929C125.264 31.4904 125.02 31.7479 124.732 31.9501C124.445 32.1524 124.12 32.2956 123.777 32.3712C123.433 32.4469 123.078 32.4535 122.732 32.3909C122.387 32.3282 122.057 32.1973 121.762 32.006" fill="white"/>
<path d="M123.21 32.5958C122.657 32.5963 122.115 32.4375 121.65 32.1384C121.605 32.1093 121.573 32.0635 121.562 32.0112C121.551 31.9589 121.56 31.9041 121.589 31.8589C121.603 31.8361 121.621 31.8164 121.643 31.8009C121.665 31.7854 121.69 31.7745 121.716 31.7688C121.742 31.7631 121.769 31.7628 121.795 31.7678C121.821 31.7728 121.846 31.783 121.869 31.7979C122.142 31.9741 122.447 32.0945 122.768 32.152C123.088 32.2096 123.416 32.2032 123.734 32.1333C124.364 31.983 124.911 31.5929 125.258 31.0458C125.431 30.7583 125.564 30.4489 125.655 30.1259C125.753 29.8528 125.788 29.5608 125.756 29.2722C125.664 28.9311 125.455 28.6329 125.167 28.4285C125.055 28.3357 124.928 28.2635 124.791 28.2151C124.585 28.1699 124.372 28.1699 124.166 28.2151C123.751 28.2726 123.349 28.3998 122.976 28.5912C122.605 28.8067 122.312 29.1364 122.143 29.5313C122.133 29.556 122.118 29.5784 122.099 29.5972C122.081 29.616 122.058 29.6308 122.033 29.6407C122.009 29.6507 121.982 29.6556 121.956 29.6551C121.929 29.6547 121.903 29.6489 121.879 29.6381C121.854 29.6287 121.831 29.6142 121.811 29.5955C121.792 29.5768 121.777 29.5543 121.767 29.5294C121.757 29.5046 121.752 29.4779 121.753 29.4511C121.754 29.4243 121.76 29.398 121.772 29.3738C121.978 28.8951 122.335 28.497 122.788 28.2405C123.2 28.027 123.645 27.8844 124.105 27.8187C124.372 27.7577 124.65 27.7577 124.918 27.8187C125.102 27.8818 125.274 27.9764 125.426 28.0982C125.794 28.3607 126.056 28.7466 126.163 29.1858C126.212 29.5386 126.174 29.8982 126.051 30.2327C125.951 30.5894 125.804 30.9312 125.614 31.2491C125.412 31.5693 125.148 31.8465 124.839 32.0645C124.529 32.2826 124.18 32.4372 123.81 32.5196C123.613 32.5668 123.412 32.5924 123.21 32.5958Z" fill="#1E293B"/>
<path d="M113.656 38.5312C115.106 38.6775 116.562 38.3185 117.778 37.5148C119.709 36.1681 119.811 34.4656 119.811 34.4656C118.193 35.166 116.433 35.4759 114.673 35.3702L113.656 38.5312Z" fill="#1E293B"/>
<path d="M114.235 38.7855C114.028 38.7879 113.821 38.776 113.615 38.7499C113.583 38.7455 113.552 38.7341 113.525 38.7165C113.497 38.6988 113.474 38.6753 113.456 38.6477C113.439 38.6201 113.428 38.589 113.424 38.5566C113.42 38.5243 113.423 38.4913 113.432 38.4602L114.449 35.3043C114.465 35.2579 114.495 35.2177 114.535 35.1894C114.575 35.1611 114.623 35.1462 114.673 35.1468C116.394 35.2307 118.111 34.9141 119.688 34.2218C119.723 34.2031 119.761 34.1934 119.8 34.1934C119.839 34.1934 119.878 34.2031 119.912 34.2218C119.945 34.2435 119.971 34.273 119.989 34.3077C120.006 34.3424 120.015 34.3811 120.014 34.42C120.014 34.4963 119.892 36.2699 117.895 37.6674C116.816 38.4011 115.54 38.7909 114.235 38.7855ZM113.946 38.3281C115.253 38.394 116.546 38.0376 117.635 37.3117C118.537 36.7257 119.197 35.8344 119.495 34.8012C118.008 35.3807 116.42 35.6554 114.825 35.6092L113.946 38.3281Z" fill="#1E293B"/>
<path d="M117.32 25.0996C117.32 25.0996 114.779 27.6406 115.135 28.2708C115.491 28.901 116.888 28.779 116.888 28.779" fill="white"/>
<path d="M116.705 29.0231C116.268 29.0231 115.292 28.957 114.947 28.3879C114.53 27.7069 116.36 25.7503 117.168 24.9422C117.189 24.9209 117.213 24.9039 117.241 24.8923C117.268 24.8807 117.298 24.8748 117.328 24.8748C117.358 24.8748 117.387 24.8807 117.415 24.8923C117.442 24.9039 117.467 24.9209 117.488 24.9422C117.53 24.985 117.553 25.0425 117.553 25.1023C117.553 25.1622 117.53 25.2197 117.488 25.2624C116.197 26.5634 115.181 27.8898 115.328 28.1541C115.567 28.5556 116.548 28.5861 116.853 28.5708C116.912 28.5693 116.97 28.5905 117.014 28.6302C117.059 28.6699 117.086 28.725 117.091 28.7843C117.093 28.8136 117.088 28.843 117.078 28.8706C117.068 28.8983 117.053 28.9237 117.033 28.9454C117.013 28.9671 116.99 28.9847 116.963 28.9972C116.936 29.0096 116.907 29.0167 116.878 29.018L116.705 29.0231Z" fill="#1E293B"/>
<path d="M113.422 30.268L118.367 30.2019C118.367 30.2019 118.143 33.556 115.267 33.7593C112.391 33.9626 113.422 30.268 113.422 30.268Z" fill="#1E293B"/>
<path d="M118.489 25.1047C118.554 24.9649 118.654 24.8445 118.78 24.7553C118.905 24.6662 119.052 24.6115 119.206 24.5965C119.775 24.505 120.064 25.1708 120.064 25.1708" fill="white"/>
<path d="M120.064 25.3741C120.021 25.375 119.977 25.3629 119.94 25.3394C119.903 25.3159 119.874 25.282 119.856 25.242C119.856 25.242 119.632 24.7338 119.241 24.7998C119.127 24.8111 119.017 24.8516 118.923 24.9174C118.828 24.9833 118.752 25.0723 118.702 25.1759C118.682 25.2322 118.64 25.2781 118.586 25.3038C118.532 25.3294 118.469 25.3328 118.413 25.3131C118.358 25.2935 118.313 25.2534 118.288 25.2012C118.262 25.149 118.258 25.0889 118.276 25.0336C118.349 24.8514 118.471 24.6924 118.627 24.5734C118.784 24.4545 118.97 24.3799 119.165 24.3577C119.897 24.2357 120.252 25.0285 120.268 25.0641C120.279 25.0911 120.286 25.1202 120.286 25.1497C120.287 25.1791 120.281 25.2084 120.271 25.2358C120.26 25.2632 120.244 25.2882 120.223 25.3093C120.202 25.3304 120.178 25.3473 120.151 25.3589L120.064 25.3741Z" fill="#1E293B"/>
<path d="M113.91 24.6725C113.975 24.5327 114.075 24.4123 114.201 24.3231C114.327 24.234 114.473 24.1792 114.627 24.1643C115.196 24.0677 115.486 24.7386 115.486 24.7386" fill="white"/>
<path d="M115.486 24.947C115.441 24.9474 115.398 24.9346 115.36 24.9102C115.323 24.8857 115.294 24.8508 115.277 24.8098C115.277 24.8098 115.054 24.3016 114.662 24.3727C114.547 24.383 114.437 24.4231 114.343 24.4891C114.248 24.555 114.173 24.6446 114.124 24.7488C114.103 24.8051 114.061 24.851 114.007 24.8767C113.953 24.9023 113.891 24.9057 113.834 24.886C113.779 24.8653 113.734 24.8242 113.708 24.7712C113.683 24.7182 113.679 24.6574 113.697 24.6014C113.771 24.4198 113.893 24.2614 114.049 24.1425C114.206 24.0237 114.391 23.9488 114.586 23.9255C115.318 23.8035 115.674 24.6014 115.689 24.6319C115.701 24.6588 115.708 24.688 115.709 24.7177C115.71 24.7473 115.705 24.7768 115.694 24.8044C115.683 24.832 115.666 24.8571 115.645 24.8781C115.624 24.8991 115.599 24.9156 115.572 24.9267C115.545 24.9401 115.516 24.947 115.486 24.947Z" fill="#1E293B"/>
<path d="M127.83 73.0078L123.785 126.984L56.5393 113.237L101.241 67.377L127.83 73.0078Z" fill="#1E293B"/>
<path d="M98.8826 33.4136L19.908 46.576L54.6487 11.2661L98.8826 33.4136Z" fill="#1E293B"/>
<path d="M19.9079 46.8307C19.8578 46.831 19.8086 46.8164 19.7667 46.7888C19.7248 46.7612 19.692 46.7219 19.6725 46.6757C19.6529 46.6295 19.6474 46.5785 19.6568 46.5292C19.6661 46.4799 19.6899 46.4345 19.725 46.3987L54.4657 11.0837C54.5038 11.046 54.5527 11.0212 54.6057 11.013C54.6586 11.0048 54.7128 11.0135 54.7605 11.0379L98.9741 33.1905C99.0235 33.2125 99.064 33.2506 99.0889 33.2986C99.1139 33.3466 99.1217 33.4017 99.1113 33.4548C99.1065 33.5075 99.0852 33.5574 99.0506 33.5975C99.016 33.6376 98.9697 33.6659 98.9182 33.6784L19.9486 46.8256L19.9079 46.8307ZM54.7046 11.5766L20.655 46.1954L98.0695 33.2921L54.7046 11.5766Z" fill="#1E293B"/>
<path d="M106.175 86.3939L31.6779 99.7952L20.0095 47.0438L98.9435 33.8813L106.175 86.3939Z" fill="#1E293B"/>
<path d="M31.6829 100.049C31.6248 100.051 31.5681 100.031 31.5226 99.9953C31.4771 99.9591 31.4458 99.9081 31.4339 99.8512L19.7452 47.0947C19.7313 47.0282 19.7441 46.9588 19.7808 46.9016C19.8 46.8717 19.8253 46.8463 19.8551 46.827C19.8849 46.8077 19.9185 46.795 19.9536 46.7898L98.9181 33.6273C98.986 33.6169 99.0553 33.6333 99.1112 33.6731C99.139 33.6935 99.1624 33.7193 99.1798 33.749C99.1973 33.7787 99.2085 33.8117 99.2129 33.8459L106.445 86.3584C106.45 86.3908 106.448 86.4239 106.441 86.4557C106.433 86.4875 106.419 86.5175 106.399 86.544C106.38 86.5704 106.356 86.5928 106.328 86.6098C106.3 86.6268 106.269 86.6381 106.236 86.643L31.7236 100.044L31.6829 100.049ZM20.3144 47.2472L31.876 99.5056L105.891 86.1856L98.7301 34.1864L20.3144 47.2472Z" fill="#1E293B"/>
<path d="M37.9338 82.3385C37.9338 82.3385 24.2123 39.9849 17.6057 27.1071L91.1579 7.07373L95.7317 72.6319L37.9338 82.3385Z" fill="#3B82F6"/>
<path d="M30.4887 34.5164C30.4322 34.5167 30.3772 34.4977 30.3329 34.4626C30.2886 34.4275 30.2575 34.3784 30.2448 34.3233C30.2277 34.2586 30.2367 34.1897 30.27 34.1317C30.3033 34.0737 30.3582 34.0311 30.4227 34.0133L84.5107 19.992C84.5781 19.9751 84.6494 19.9857 84.709 20.0215C84.7685 20.0572 84.8115 20.1151 84.8283 20.1825C84.8452 20.2499 84.8345 20.3212 84.7988 20.3808C84.7631 20.4404 84.7051 20.4833 84.6377 20.5002L30.5497 34.5062L30.4887 34.5164Z" fill="white"/>
<path d="M32.7757 43.3846C32.7182 43.3856 32.6622 43.3663 32.6175 43.33C32.5729 43.2937 32.5425 43.2429 32.5317 43.1864C32.5243 43.154 32.5234 43.1204 32.5291 43.0877C32.5348 43.0549 32.5471 43.0237 32.5651 42.9957C32.5831 42.9678 32.6065 42.9437 32.6339 42.925C32.6613 42.9062 32.6923 42.8932 32.7248 42.8865L85.0951 31.1369C85.1625 31.1227 85.2328 31.1359 85.2904 31.1736C85.3481 31.2112 85.3884 31.2702 85.4026 31.3376C85.4167 31.405 85.4035 31.4753 85.3659 31.5329C85.3282 31.5906 85.2692 31.6309 85.2018 31.6451L32.8519 43.3795L32.7757 43.3846Z" fill="white"/>
<path d="M37.2629 51.6837C37.2041 51.6847 37.1468 51.6648 37.1012 51.6276C37.0557 51.5904 37.0247 51.5382 37.0139 51.4804C37.0073 51.4477 37.0071 51.414 37.0134 51.3812C37.0198 51.3485 37.0325 51.3173 37.0509 51.2894C37.0693 51.2616 37.093 51.2376 37.1207 51.2189C37.1484 51.2003 37.1794 51.1872 37.2121 51.1806L87.2955 41.4536C87.3279 41.4469 87.3613 41.4468 87.3937 41.4532C87.4261 41.4596 87.457 41.4724 87.4844 41.4909C87.5119 41.5093 87.5354 41.533 87.5535 41.5607C87.5717 41.5883 87.5842 41.6193 87.5903 41.6518C87.5977 41.6845 87.5983 41.7184 87.5923 41.7514C87.5863 41.7845 87.5736 41.8159 87.5551 41.8439C87.5366 41.8719 87.5126 41.8959 87.4846 41.9144C87.4566 41.9329 87.4251 41.9456 87.3921 41.9516L37.3087 51.6786L37.2629 51.6837Z" fill="white"/>
<path d="M39.6466 62.2746C39.5792 62.28 39.5124 62.2584 39.4609 62.2146C39.4095 62.1708 39.3775 62.1083 39.3722 62.0409C39.3668 61.9735 39.3884 61.9067 39.4322 61.8552C39.476 61.8038 39.5385 61.7718 39.6059 61.7664L87.1127 54.0367C87.1801 54.0259 87.249 54.0423 87.3043 54.0824C87.3596 54.1224 87.3967 54.1827 87.4075 54.2501C87.4182 54.3175 87.4018 54.3864 87.3618 54.4417C87.3218 54.497 87.2614 54.5341 87.194 54.5449L39.6872 62.2696L39.6466 62.2746Z" fill="white"/>
<path d="M64.6907 67.4481L20.0095 47.0438L31.6779 99.7952L106.175 86.3939L98.9435 33.8813L64.6907 67.4481Z" fill="white"/>
<path d="M31.6828 100.049C31.6247 100.05 31.568 100.031 31.5225 99.9951C31.477 99.9589 31.4457 99.9079 31.4338 99.851L19.7451 47.0945C19.735 47.0482 19.738 47 19.7538 46.9553C19.7696 46.9106 19.7976 46.8713 19.8346 46.8417C19.8716 46.8121 19.9162 46.7934 19.9632 46.7878C20.0103 46.7822 20.058 46.7898 20.1009 46.8099L64.6245 67.138L98.7656 33.6779C98.7991 33.6443 98.8415 33.6207 98.8878 33.6099C98.9341 33.5991 98.9825 33.6015 99.0275 33.6169C99.0725 33.6322 99.1123 33.6599 99.1424 33.6968C99.1724 33.7336 99.1915 33.7781 99.1975 33.8253L106.429 86.3379C106.434 86.3702 106.433 86.4033 106.425 86.4351C106.417 86.467 106.404 86.497 106.384 86.5234C106.365 86.5499 106.34 86.5722 106.312 86.5892C106.284 86.6062 106.253 86.6175 106.221 86.6225L31.7235 100.044L31.6828 100.049ZM20.3651 47.4858L31.8759 99.5054L105.891 86.1854L98.7757 34.4148L64.8685 67.6309C64.8312 67.6665 64.7841 67.6899 64.7333 67.6981C64.6824 67.7062 64.6303 67.6988 64.5839 67.6767L20.3651 47.4858Z" fill="#1E293B"/>
<path d="M106.181 86.3938L31.6831 99.7951L64.6959 67.448L106.181 86.3938Z" fill="white"/>
<path d="M31.6828 100.05C31.6358 100.05 31.5894 100.038 31.5491 100.013C31.5087 99.9891 31.4758 99.9542 31.4542 99.9123C31.4296 99.8643 31.4212 99.8096 31.4304 99.7565C31.4395 99.7033 31.4657 99.6546 31.505 99.6176L64.5381 67.2654C64.5754 67.2299 64.6225 67.2065 64.6733 67.1983C64.7241 67.1901 64.7762 67.1976 64.8227 67.2197L106.302 86.1604C106.351 86.1835 106.392 86.2214 106.418 86.2688C106.445 86.3162 106.456 86.3707 106.45 86.4246C106.443 86.4779 106.42 86.5277 106.383 86.5669C106.347 86.6062 106.299 86.6329 106.246 86.6432L31.7286 100.05H31.6828ZM64.7465 67.7533L32.4502 99.3991L105.332 86.2874L64.7465 67.7533Z" fill="#1E293B"/>
<path d="M106.181 86.3938L31.6831 99.7951L64.6959 67.448L106.181 86.3938Z" fill="white"/>
<path d="M31.6828 100.05C31.6358 100.05 31.5894 100.038 31.5491 100.013C31.5087 99.9891 31.4758 99.9542 31.4542 99.9123C31.4296 99.8643 31.4212 99.8096 31.4304 99.7565C31.4395 99.7033 31.4657 99.6546 31.505 99.6176L64.5381 67.2654C64.5754 67.2299 64.6225 67.2065 64.6733 67.1983C64.7241 67.1901 64.7762 67.1976 64.8227 67.2197L106.302 86.1604C106.351 86.1835 106.392 86.2214 106.418 86.2688C106.445 86.3162 106.456 86.3707 106.45 86.4246C106.443 86.4779 106.42 86.5277 106.383 86.5669C106.347 86.6062 106.299 86.6329 106.246 86.6432L31.7286 100.05H31.6828ZM64.7465 67.7533L32.4502 99.3991L105.332 86.2874L64.7465 67.7533Z" fill="#1E293B"/>
<path d="M100.997 13.7056C100.997 13.7056 99.9143 17.7712 96.4941 17.8728C96.4941 17.8728 100.102 18.8892 100.86 22.2739C101.196 21.3348 101.751 20.4895 102.479 19.808C103.208 19.1266 104.088 18.6287 105.047 18.3556C104.065 17.9362 103.191 17.3001 102.489 16.4948C101.788 15.6895 101.277 14.736 100.997 13.7056Z" fill="#E2E8F0"/>
<path d="M2.78149 44.5992C2.78149 44.5992 5.51054 48.5022 3.0915 51.5209C3.0915 51.5209 6.59301 49.1425 10.0691 50.9568C9.50366 49.9833 9.1787 48.8889 9.12125 47.7646C9.0638 46.6403 9.2755 45.5185 9.73878 44.4924C9.73878 44.4924 6.7658 46.2915 2.78149 44.5992Z" fill="#E2E8F0"/>
<path d="M27.2618 12.7756C27.2618 12.7756 27.8361 19.5754 22.688 21.5726C22.688 21.5726 28.7305 21.1457 31.734 25.8923C31.734 25.8923 31.5205 20.6884 35.9724 17.6544C35.9317 17.6544 30.9615 17.7459 27.2618 12.7756Z" fill="#E2E8F0"/>
<path d="M125.07 46.9978C125.07 46.9978 85.5779 67.0261 79.5659 68.1746C73.5538 69.3231 66.4034 67.3157 66.688 69.0335C66.9726 70.7512 70.4081 71.605 70.4081 71.605C70.4081 71.605 59.5376 73.3227 60.1068 74.4712C60.676 75.6198 67.8366 74.1816 67.8366 74.1816C67.8366 74.1816 58.9633 76.7582 60.9657 77.9016C62.968 79.0451 69.2646 76.4736 69.2646 76.4736C69.2646 76.4736 59.8222 81.3371 62.3988 81.6216C64.9754 81.9062 69.5543 79.3347 69.5543 79.3347C69.5543 79.3347 62.3988 83.0548 65.26 83.3394C68.1212 83.624 110.759 68.4592 125.07 59.8757" fill="white"/>
<path d="M65.3462 83.599H65.2344C64.7008 83.5431 64.3959 83.3602 64.34 83.0552C64.2536 82.5979 64.8888 81.9575 65.7731 81.307C64.6889 81.7278 63.5304 81.9232 62.3681 81.8813C61.9768 81.8356 61.7532 81.6882 61.7075 81.429C61.5652 80.6667 64.0655 79.0557 66.388 77.7394C64.4213 78.3137 61.9971 78.7914 60.8384 78.1308C60.7062 78.0756 60.5946 77.98 60.5198 77.8577C60.445 77.7355 60.4107 77.5927 60.4217 77.4498C60.5183 76.6468 62.5816 75.7066 64.5687 74.985C62.485 75.2442 60.254 75.3306 59.8779 74.5886C59.8441 74.5234 59.8264 74.4511 59.8264 74.3777C59.8264 74.3043 59.8441 74.2319 59.8779 74.1668C60.3861 73.1504 66.5608 71.9968 69.3203 71.5343C68.2277 71.1226 66.637 70.3146 66.4287 69.0797C66.4075 68.9755 66.4112 68.8679 66.4395 68.7655C66.4678 68.663 66.5198 68.5687 66.5913 68.4902C67.0995 67.926 68.6546 68.0175 71.0228 68.1547C73.5232 68.297 76.6131 68.4749 79.5098 67.9311C85.4151 66.8029 124.552 46.9729 124.943 46.7747C125.004 46.7443 125.074 46.739 125.139 46.7599C125.203 46.7808 125.257 46.8263 125.289 46.8865C125.319 46.9465 125.324 47.016 125.303 47.0798C125.282 47.1436 125.237 47.1965 125.177 47.227C123.561 48.0452 85.5828 67.2908 79.6064 68.4292C76.669 68.9882 73.5079 68.8052 70.9669 68.6629C69.0713 68.5511 67.2825 68.4495 66.942 68.8256C66.9224 68.8483 66.9089 68.8755 66.9026 68.9049C66.8964 68.9342 66.8977 68.9646 66.9064 68.9933C67.1198 70.2689 69.5236 71.1379 70.4384 71.3666C70.5058 71.37 70.5691 71.4 70.6143 71.45C70.6596 71.5 70.6832 71.566 70.6798 71.6334C70.6764 71.7008 70.6464 71.7641 70.5964 71.8093C70.5463 71.8546 70.4804 71.8782 70.413 71.8748C65.7324 72.6117 60.5335 73.7907 60.2997 74.4158C60.5996 74.9748 64.4009 74.6242 67.75 73.9533C67.7834 73.9453 67.818 73.944 67.8519 73.9493C67.8858 73.9547 67.9183 73.9667 67.9475 73.9846C67.9768 74.0026 68.0022 74.0261 68.0224 74.0539C68.0426 74.0816 68.0571 74.1131 68.0651 74.1465C68.0731 74.1798 68.0745 74.2144 68.0691 74.2483C68.0637 74.2822 68.0517 74.3147 68.0338 74.344C68.0159 74.3732 67.9923 74.3987 67.9646 74.4189C67.9368 74.439 67.9053 74.4535 67.872 74.4615C64.5737 75.417 60.9706 76.8653 60.8893 77.5412C60.8893 77.6073 60.9909 77.6785 61.057 77.7191C62.6121 78.6085 67.4146 76.9771 69.1323 76.2707C69.1938 76.2464 69.2623 76.2466 69.3237 76.2712C69.3851 76.2957 69.4348 76.3429 69.4626 76.4029C69.4893 76.4624 69.492 76.5299 69.4702 76.5914C69.4485 76.6529 69.4039 76.7037 69.3458 76.7332C65.9256 78.4967 62.2309 80.7582 62.1699 81.3629C62.2418 81.3827 62.3147 81.398 62.3885 81.4087C64.3095 81.6221 67.4705 80.1331 68.7969 79.4622L69.3966 79.1421C69.456 79.1116 69.525 79.1056 69.5887 79.1256C69.6524 79.1456 69.7057 79.1898 69.7371 79.2488C69.7533 79.2775 69.7636 79.309 69.7675 79.3417C69.7714 79.3744 69.7688 79.4075 69.7598 79.4392C69.7508 79.4709 69.7357 79.5004 69.7152 79.5262C69.6947 79.552 69.6693 79.5734 69.6405 79.5893C69.5999 79.5893 69.3661 79.7468 69.0002 79.9349C66.6269 81.2257 64.7262 82.5979 64.8024 82.9841C64.8024 82.9841 64.8939 83.0807 65.2496 83.1162H65.3767C66.9013 83.1162 77.3245 79.8027 90.7868 74.7207C98.1456 71.9459 116.197 64.9277 124.943 59.683C124.971 59.6622 125.004 59.6475 125.038 59.6398C125.073 59.6322 125.108 59.6317 125.143 59.6385C125.177 59.6453 125.21 59.6592 125.239 59.6792C125.268 59.6993 125.292 59.7252 125.31 59.7552C125.329 59.7852 125.341 59.8187 125.345 59.8536C125.35 59.8884 125.347 59.9239 125.338 59.9577C125.328 59.9915 125.312 60.0229 125.289 60.05C125.267 60.0771 125.239 60.0992 125.207 60.115C111.405 68.3682 69.3661 83.599 65.3462 83.599Z" fill="#1E293B"/>
<path d="M117.772 63.9263C117.772 63.9263 111.674 49.6204 112.238 49.4272C112.802 49.2341 124.435 41.606 125.406 42.1803C126.376 42.7545 129.979 53.8181 128.836 57.0604C127.692 60.3028 117.772 63.9263 117.772 63.9263Z" fill="#3B82F6"/>
<path d="M119.297 63.9976C119.242 63.9975 119.189 63.9803 119.144 63.9484C119.1 63.9165 119.066 63.8716 119.048 63.8197C119.027 63.7537 119.033 63.6821 119.064 63.6203C119.096 63.5585 119.15 63.5115 119.216 63.4894C119.302 63.4589 127.769 60.6028 131.113 56.3238C131.134 56.2969 131.16 56.2746 131.19 56.258C131.22 56.2414 131.253 56.231 131.287 56.2272C131.321 56.2234 131.356 56.2264 131.389 56.236C131.421 56.2456 131.452 56.2616 131.479 56.2831C131.506 56.3036 131.53 56.3295 131.547 56.3592C131.565 56.389 131.576 56.422 131.58 56.4562C131.584 56.4905 131.582 56.5252 131.572 56.5584C131.563 56.5915 131.546 56.6223 131.524 56.649C128.084 61.05 119.734 63.8706 119.383 63.9874C119.355 63.9958 119.326 63.9992 119.297 63.9976Z" fill="#1E293B"/>
<path d="M126.061 32.9105C125.999 32.9092 125.94 32.8857 125.894 32.8443C125.848 32.8029 125.818 32.7463 125.81 32.6848C125.802 32.6233 125.816 32.561 125.85 32.5092C125.884 32.4574 125.936 32.4195 125.995 32.4023C126.944 32.1193 127.817 31.6266 128.55 30.9607C129.283 30.2948 129.856 29.4727 130.229 28.5552C130.969 26.68 131.146 24.6293 130.737 22.655C130.452 20.7465 129.623 18.9606 128.348 17.512C127.71 16.8108 126.921 16.2635 126.041 15.9114C125.161 15.5592 124.212 15.4115 123.266 15.4792L122.895 15.53C122.618 15.5765 122.338 15.6019 122.057 15.6062C121.714 15.5897 121.374 15.5404 121.04 15.4589L120.822 15.4131C119.031 15.0549 117.178 15.155 115.435 15.7041C113.693 16.2532 112.118 17.2335 110.856 18.554C109.593 19.8746 108.685 21.4925 108.215 23.2578C107.745 25.0231 107.729 26.8785 108.168 28.6518C108.29 29.16 108.584 29.968 109.209 30.0443C109.244 30.0474 109.277 30.0574 109.308 30.0739C109.338 30.0903 109.365 30.1128 109.386 30.1399C109.407 30.167 109.423 30.1982 109.432 30.2316C109.441 30.2649 109.443 30.2998 109.438 30.3339C109.434 30.3681 109.424 30.4011 109.407 30.4311C109.39 30.4612 109.368 30.4876 109.341 30.5089C109.314 30.5301 109.283 30.5459 109.25 30.5551C109.217 30.5643 109.182 30.5669 109.148 30.5626C108.452 30.4762 107.924 29.8461 107.659 28.7788C107.195 26.9174 107.209 24.9687 107.7 23.1142C108.191 21.2596 109.143 19.5593 110.468 18.1717C111.793 16.784 113.447 15.754 115.277 15.1775C117.107 14.601 119.053 14.4967 120.934 14.8744L121.162 14.9202C121.469 14.9974 121.782 15.0434 122.097 15.0574C122.349 15.0506 122.601 15.0269 122.85 14.9862C122.982 14.9862 123.109 14.9456 123.241 14.9354C124.266 14.853 125.296 15.0087 126.251 15.3904C127.206 15.7722 128.059 16.3696 128.745 17.1359C130.098 18.6561 130.98 20.5363 131.286 22.5483C131.711 24.6247 131.518 26.7802 130.732 28.7484C130.33 29.7387 129.71 30.6258 128.918 31.3438C128.126 32.0617 127.183 32.592 126.158 32.8953L126.061 32.9105Z" fill="#1E293B"/>
<path d="M122.092 15.3319C122.092 15.3319 124.735 13.3703 129.029 14.4172C133.323 15.4641 134.944 23.2904 130.935 27.4881C130.935 27.4881 131.56 16.0485 122.092 15.3319Z" fill="#1E293B"/>
<path d="M137.374 39.868H137.348C135.315 39.7428 133.367 39.0078 131.758 37.759C130.952 37.1226 130.303 36.3086 129.862 35.3805C129.421 34.4523 129.2 33.4349 129.217 32.4076C129.218 32.3729 129.225 32.3386 129.24 32.307C129.254 32.2754 129.275 32.247 129.301 32.2237C129.326 32.2003 129.356 32.1825 129.389 32.1713C129.422 32.1601 129.457 32.1558 129.492 32.1586C129.526 32.1599 129.56 32.168 129.591 32.1826C129.623 32.1972 129.651 32.2178 129.674 32.2434C129.697 32.269 129.715 32.2989 129.726 32.3315C129.738 32.364 129.743 32.3985 129.741 32.433C129.726 33.3774 129.93 34.3125 130.335 35.1656C130.741 36.0188 131.337 36.767 132.078 37.3524C133.32 38.3289 134.792 38.9694 136.352 39.2124C135.924 38.7322 135.651 38.1333 135.57 37.4947C135.486 36.5319 135.635 35.5631 136.002 34.6691C136.614 33.1506 137.361 31.6897 138.233 30.3036C139.498 28.1438 140.692 26.1059 140.957 23.7377C141.111 22.3697 140.929 20.9847 140.425 19.7036C139.921 18.4226 139.111 17.2844 138.066 16.3885C137.02 15.4926 135.772 14.8664 134.429 14.5644C133.085 14.2624 131.689 14.2939 130.361 14.6561C130.293 14.6735 130.222 14.6641 130.161 14.63C130.101 14.5959 130.056 14.5397 130.035 14.4731C130.026 14.4401 130.024 14.4055 130.028 14.3715C130.032 14.3375 130.043 14.3046 130.06 14.2748C130.077 14.245 130.1 14.2189 130.127 14.198C130.154 14.1771 130.185 14.1618 130.218 14.153C131.63 13.7675 133.115 13.7338 134.543 14.0549C135.971 14.3759 137.299 15.0418 138.41 15.9945C139.521 16.9472 140.382 18.1575 140.917 19.5197C141.452 20.882 141.646 22.3546 141.48 23.8088C141.201 26.2837 139.92 28.4639 138.685 30.5781C137.842 31.9337 137.12 33.3604 136.525 34.8419C136.18 35.6542 136.04 36.5392 136.119 37.4185C136.158 37.8317 136.304 38.2276 136.541 38.5679C136.779 38.9081 137.101 39.1809 137.475 39.3598C137.532 39.3831 137.578 39.425 137.607 39.4784C137.635 39.5318 137.645 39.5935 137.634 39.6531C137.622 39.7127 137.591 39.7666 137.544 39.8057C137.498 39.8449 137.44 39.8669 137.379 39.868H137.374Z" fill="#1E293B"/>
<path d="M114.053 51.5516C113.988 51.563 113.921 51.5497 113.865 51.5143C113.809 51.4788 113.769 51.4239 113.752 51.3602C113.735 51.2965 113.742 51.2286 113.772 51.17C113.802 51.1114 113.854 51.0662 113.915 51.0434L124.359 44.6044C124.418 44.5686 124.49 44.5575 124.557 44.5737C124.625 44.5898 124.683 44.6319 124.72 44.6908C124.738 44.7201 124.751 44.7527 124.756 44.7868C124.762 44.8209 124.761 44.8558 124.753 44.8895C124.745 44.9231 124.73 44.9547 124.709 44.9826C124.689 45.0105 124.663 45.0339 124.633 45.0517L114.19 51.4906C114.151 51.5235 114.103 51.5447 114.053 51.5516Z" fill="#1E293B"/>
<path d="M0.448863 70.5432C0.386862 70.5432 0.3274 70.5186 0.283559 70.4747C0.239718 70.4309 0.215088 70.3714 0.215088 70.3094C0.215088 70.2474 0.239718 70.188 0.283559 70.1441C0.3274 70.1003 0.386862 70.0756 0.448863 70.0756L16.2031 69.2168C16.2346 69.2132 16.2664 69.2163 16.2965 69.2259C16.3267 69.2355 16.3544 69.2514 16.378 69.2726C16.4015 69.2937 16.4203 69.3196 16.4331 69.3485C16.4459 69.3774 16.4524 69.4088 16.4522 69.4404C16.455 69.5016 16.4336 69.5614 16.3928 69.607C16.3519 69.6526 16.2948 69.6804 16.2336 69.6843L0.479353 70.5432H0.448863Z" fill="#E2E8F0"/>
<path d="M38.2234 118.909C38.1785 118.909 38.1343 118.897 38.0964 118.873C38.0445 118.839 38.0081 118.786 37.9948 118.725C37.9815 118.664 37.9924 118.601 38.0252 118.548L45.755 106.529C45.7706 106.501 45.7918 106.477 45.8173 106.457C45.8427 106.438 45.8718 106.424 45.9029 106.416C45.9339 106.409 45.9662 106.407 45.9977 106.413C46.0292 106.418 46.0593 106.43 46.0861 106.447C46.1129 106.465 46.1359 106.487 46.1536 106.514C46.1713 106.541 46.1833 106.571 46.1889 106.602C46.1946 106.633 46.1937 106.666 46.1864 106.697C46.179 106.728 46.1654 106.757 46.1463 106.783L38.4419 118.802C38.4188 118.838 38.3862 118.867 38.3476 118.886C38.3091 118.905 38.2661 118.913 38.2234 118.909Z" fill="#E2E8F0"/>
<path d="M9.03229 99.4495C8.99061 99.4491 8.94978 99.4376 8.91404 99.4162C8.8783 99.3948 8.84894 99.3641 8.82901 99.3275C8.81388 99.3009 8.80423 99.2716 8.80065 99.2412C8.79706 99.2108 8.79961 99.18 8.80814 99.1507C8.81667 99.1213 8.83101 99.0939 8.8503 99.0702C8.8696 99.0464 8.89347 99.0268 8.92049 99.0124L20.6549 92.4261C20.7097 92.3967 20.7737 92.3898 20.8335 92.4069C20.8933 92.424 20.9441 92.4637 20.975 92.5176C20.9905 92.5443 21.0005 92.5738 21.0045 92.6043C21.0085 92.6349 21.0065 92.6659 20.9984 92.6957C20.9904 92.7254 20.9766 92.7533 20.9577 92.7777C20.9389 92.8021 20.9154 92.8225 20.8887 92.8378L9.15426 99.4444C9.11477 99.4569 9.07268 99.4586 9.03229 99.4495Z" fill="#E2E8F0"/>
<path d="M96.0317 8.1561C95.9941 8.156 95.957 8.1468 95.9237 8.12929C95.8903 8.11179 95.8617 8.08649 95.8403 8.05556C95.8188 8.02462 95.8051 7.98896 95.8004 7.9516C95.7957 7.91425 95.8001 7.87631 95.8132 7.84101L98.6744 0.136664C98.6989 0.0829196 98.7429 0.0404625 98.7975 0.0178308C98.852 -0.00480093 98.9132 -0.00592851 98.9685 0.0146757C99.0239 0.0352798 99.0694 0.076087 99.0959 0.12889C99.1224 0.181692 99.128 0.242573 99.1114 0.299288L96.2502 8.02397C96.2311 8.06523 96.2001 8.09984 96.1611 8.12338C96.1222 8.14691 96.0771 8.15831 96.0317 8.1561Z" fill="#E2E8F0"/>
<path d="M139.244 54.8042C139.189 54.8048 139.136 54.7857 139.094 54.7502C139.052 54.7148 139.024 54.6654 139.015 54.6111C139.01 54.5807 139.011 54.5496 139.018 54.5196C139.025 54.4896 139.038 54.4613 139.056 54.4362C139.074 54.4112 139.097 54.39 139.123 54.3737C139.149 54.3575 139.178 54.3466 139.209 54.3417L151.512 52.3089C151.573 52.3 151.636 52.3151 151.686 52.3511C151.736 52.3871 151.77 52.4412 151.781 52.502C151.787 52.5324 151.786 52.5635 151.779 52.5935C151.772 52.6235 151.759 52.6518 151.741 52.6768C151.723 52.7018 151.7 52.7231 151.674 52.7393C151.648 52.7555 151.619 52.7664 151.588 52.7714L139.28 54.7788L139.244 54.8042Z" fill="#E2E8F0"/>
<path d="M138.959 105.746C138.924 105.747 138.889 105.739 138.857 105.723C138.825 105.707 138.798 105.683 138.777 105.655L131.047 95.9278C131.009 95.8783 130.992 95.8161 131 95.7544C131.008 95.6927 131.039 95.6364 131.087 95.5975C131.111 95.5781 131.138 95.5636 131.167 95.5549C131.197 95.5462 131.227 95.5435 131.258 95.5468C131.288 95.5501 131.317 95.5594 131.344 95.5742C131.37 95.589 131.394 95.609 131.413 95.633L139.142 105.365C139.162 105.389 139.176 105.417 139.184 105.447C139.193 105.477 139.195 105.508 139.191 105.539C139.187 105.57 139.178 105.599 139.162 105.626C139.147 105.653 139.126 105.677 139.102 105.695C139.061 105.727 139.011 105.745 138.959 105.746Z" fill="#E2E8F0"/>
<path d="M18.6629 23.1226C18.6069 23.1232 18.5527 23.1033 18.5104 23.0667L12.9862 18.32C12.9437 18.2756 12.9199 18.2164 12.9199 18.1549C12.9199 18.0933 12.9437 18.0342 12.9862 17.9897C13.0058 17.9657 13.0301 17.9459 13.0575 17.9316C13.085 17.9172 13.1151 17.9086 13.146 17.9062C13.1768 17.9038 13.2079 17.9077 13.2372 17.9177C13.2666 17.9277 13.2935 17.9436 13.3166 17.9643L18.8407 22.7109C18.8647 22.7305 18.8845 22.7547 18.8989 22.7822C18.9132 22.8097 18.9219 22.8397 18.9242 22.8706C18.9266 22.9015 18.9227 22.9326 18.9127 22.9619C18.9027 22.9912 18.8869 23.0182 18.8661 23.0412C18.8421 23.0711 18.8107 23.0942 18.7751 23.1085C18.7395 23.1227 18.7009 23.1276 18.6629 23.1226Z" fill="#E2E8F0"/>
<path d="M115.923 82.008C115.88 82.0082 115.838 81.9977 115.801 81.9775C115.771 81.9621 115.746 81.9409 115.725 81.9154C115.704 81.8898 115.688 81.8603 115.678 81.8286C115.669 81.7969 115.666 81.7636 115.669 81.7307C115.673 81.6978 115.683 81.666 115.699 81.637L121.233 71.5238C121.26 71.4743 121.303 71.4353 121.354 71.4132C121.406 71.3911 121.464 71.387 121.518 71.4018C121.573 71.4147 121.621 71.4459 121.655 71.4904C121.69 71.5348 121.707 71.5897 121.706 71.6458V80.6105C121.706 80.6779 121.679 80.7425 121.632 80.7901C121.584 80.8378 121.519 80.8646 121.452 80.8646C121.384 80.8646 121.32 80.8378 121.272 80.7901C121.225 80.7425 121.198 80.6779 121.198 80.6105V72.6368L116.116 81.881C116.096 81.9159 116.068 81.9456 116.034 81.9677C116.001 81.9898 115.963 82.0036 115.923 82.008Z" fill="white"/>
</svg>
